<svg xmlns="http://www.w3.org/2000/svg" viewBox="0 0 650.4 201.76"><defs><style>.cls-1{fill:#0ea5e9;}</style></defs><g id="Layer_2" data-name="Layer 2"><g id="Layer_3" data-name="Layer 3"><path class="cls-1" d="M326.44,36.5H279.06L254.32,160.62h21.37l8.52-42.74h3.53q3.52,0,9.64.1c4.07.06,7.85.09,11.32.09l21.43,42.55H356l-23.19-46.83a44,44,0,0,0,17.48-13.56,49.23,49.23,0,0,0,9.25-20.81l.45-2.23q3.44-17.28-6.34-28.8T326.44,36.5Zm12.07,41.06-.74,3.72a26.75,26.75,0,0,1-9.41,15.51,25.3,25.3,0,0,1-16.7,6.41H287.13l9.48-47.56h24.53q9.11,0,14.14,6.41T338.51,77.56Z"/><path class="cls-1" d="M440.66,76.82q-7.67-9.1-23.08-9.1-17.65,0-32.69,12.54t-18.56,30.19L364.62,119q-3.51,17.66,6.53,30.19t27.69,12.54a37.23,37.23,0,0,0,13.32-2.51,45.19,45.19,0,0,0,10.89-5.66,68.65,68.65,0,0,0,8.22-7.25q4-4.08,5.22-5.67a25.36,25.36,0,0,0,1.8-2.5l-.74,3.71q-1.31,6.51-12.59,14.68l-.59,3h21.18l17.92-89.93H442.11ZM433.85,111l-1.48,7.43A26.75,26.75,0,0,1,423,134a25.31,25.31,0,0,1-16.7,6.42h-2.6q-9.11,0-14.24-6.42t-3.32-15.51l1.48-7.43a26.61,26.61,0,0,1,9.51-15.52,25.67,25.67,0,0,1,16.79-6.41h2.6q9.11,0,14.14,6.41T433.85,111Z"/><path class="cls-1" d="M542.25,69.57l-29.39,55.19a52.44,52.44,0,0,0-5.6,15l-2.33,11.7h-4.28l2.19-11a44.61,44.61,0,0,0,.58-15.05L495.8,69.57H473.32L485.5,159.5h31.21l48-89.93Z"/><path class="cls-1" d="M642.69,79.79q-10-12.08-27.42-12.07h-3.53q-17.65,0-32.69,12.54t-18.56,30.19l-1.7,8.55q-3.52,17.66,6.52,30.19T593,161.73h3.53a48.09,48.09,0,0,0,23.76-6.41,56.86,56.86,0,0,0,19-17l-21-5.57q-7.85,7.62-17.87,7.62h-2.6q-8.18,0-13.16-5.3a17.51,17.51,0,0,1-4.73-13.1h67.26l2.56-12.82Q652.63,91.87,642.69,79.79Zm-14.31,29.36H582.3a27.66,27.66,0,0,1,9.8-14.21A25.21,25.21,0,0,1,608,89.08h2.6a16.86,16.86,0,0,1,13.42,5.86A18.37,18.37,0,0,1,628.38,109.15Z"/><path class="cls-1" d="M146.53,22l17.34,16.34h19.76v6.5H167.35l-2.67,5.06-1.16,2.2-1.78,3.37-.49.94-8,15.21,10.28,9.7,12.19,11.48,7.92,7.47,4,3.78,15.26-29,9.85-18.68.49-.94.48-.9L215,52.08l1.17-2.2,1-2c-.18-1.07-.36-2.09-.52-3.08,0-.18-.05-.37-.08-.56-.21-1.17-.38-2.27-.57-3.37-.14-.87-.3-1.72-.45-2.57-.6-3.59-1.2-7.12-1.89-11.37L189,3.67,185.12,0h-62l10.75,10.12Z"/><path class="cls-1" d="M176.2,148.08l-.49-.48-7.33-6.91L144.2,117.94l-10.28-9.67v0L121,96.11l-8.6-8.1-.45-.42.45-.85L121,70.42l3.69-7c-.44-2.55-.81-4.83-1.16-7-.06-.3-.1-.62-.16-.94-.2-1.14-.38-2.27-.58-3.37-.13-.74-.24-1.46-.37-2.2-.28-1.63-.55-3.29-.84-5.06l-.09-.56-.49-3-.41-.39-2.74-2.57-5.45-5.12-16-15.11L92.54,14.5,81.69,4.29,77.14,0H18.9l3.22,3.05L59.59,38.32l2.73,2.57,3.59,3.37.59.56,5.38,5.06H92.54v6.51H76.2L56.56,93.64,22.12,159,0,201v.75H51.79L81.69,145l9.76-18.51,1.09,1,19.87,18.68,1,1,7.56,7.12,2.7,2.55,10.2,9.61,14,13.14,7.84,7.39,15.76,14.8h61.3v-.44l-19-17.93Z"/></g></g></svg>